<?xml version="1.0" encoding="UTF-8" standalone="no"?>
<svg
   width="700pt"
   height="700pt"
   version="1.1"
   viewBox="0 0 700 700"
   id="svg22"
   sodipodi:docname="themeLight.svg"
   inkscape:version="1.2 (dc2aedaf03, 2022-05-15)"
   xmlns:inkscape="http://www.inkscape.org/namespaces/inkscape"
   xmlns:sodipodi="http://sodipodi.sourceforge.net/DTD/sodipodi-0.dtd"
   xmlns="http://www.w3.org/2000/svg"
   xmlns:svg="http://www.w3.org/2000/svg">
  <defs
     id="defs26" />
  <sodipodi:namedview
     id="namedview24"
     pagecolor="#ffffff"
     bordercolor="#666666"
     borderopacity="1.0"
     inkscape:showpageshadow="2"
     inkscape:pageopacity="0.0"
     inkscape:pagecheckerboard="0"
     inkscape:deskcolor="#d1d1d1"
     inkscape:document-units="pt"
     showgrid="false"
     inkscape:zoom="0.79607143"
     inkscape:cx="466.66667"
     inkscape:cy="466.03858"
     inkscape:window-width="2560"
     inkscape:window-height="1351"
     inkscape:window-x="1920"
     inkscape:window-y="0"
     inkscape:window-maximized="1"
     inkscape:current-layer="svg22" />
  <g
     id="g20"
     style="fill:#55d400">
    <path
       d="m472.5 280c0 67.656-54.844 122.5-122.5 122.5s-122.5-54.844-122.5-122.5 54.844-122.5 122.5-122.5 122.5 54.844 122.5 122.5"
       id="path2"
       style="fill:#55d400" />
    <path
       d="m350 140c4.6406 0 9.0938-1.8438 12.375-5.125s5.125-7.7344 5.125-12.375v-87.5c0-6.2539-3.3359-12.031-8.75-15.156s-12.086-3.125-17.5 0-8.75 8.9023-8.75 15.156v87.5c0 4.6406 1.8438 9.0938 5.125 12.375s7.7344 5.125 12.375 5.125z"
       id="path4"
       style="fill:#55d400" />
    <path
       d="m226.27 180.95c3.1719 3.7031 7.7461 5.918 12.617 6.1055 4.875 0.1875 9.6016-1.6641 13.051-5.1133 3.4492-3.4492 5.3008-8.1758 5.1133-13.051-0.1875-4.8711-2.4023-9.4453-6.1055-12.617l-61.773-61.949c-4.4414-4.4375-10.91-6.1719-16.973-4.5469-6.0664 1.625-10.801 6.3594-12.426 12.426-1.625 6.0625 0.10938 12.531 4.5469 16.973z"
       id="path6"
       style="fill:#55d400" />
    <path
       d="m210 280c0-4.6406-1.8438-9.0938-5.125-12.375s-7.7344-5.125-12.375-5.125h-87.5c-6.2539 0-12.031 3.3359-15.156 8.75s-3.125 12.086 0 17.5 8.9023 8.75 15.156 8.75h87.5c4.6406 0 9.0938-1.8438 12.375-5.125s5.125-7.7344 5.125-12.375z"
       id="path8"
       style="fill:#55d400" />
    <path
       d="m226.27 379.05-61.949 61.773c-3.7031 3.1719-5.9141 7.7461-6.1016 12.617-0.19141 4.8711 1.6641 9.6016 5.1094 13.051 3.4492 3.4453 8.1797 5.3008 13.051 5.1133 4.8711-0.19141 9.4453-2.4023 12.617-6.1055l61.949-61.949c3.8594-4.5078 5.1719-10.66 3.4922-16.348-1.6836-5.6875-6.1328-10.137-11.82-11.816-5.6875-1.6836-11.84-0.37109-16.348 3.4883z"
       id="path10"
       style="fill:#55d400" />
    <path
       d="m350 420c-4.6406 0-9.0938 1.8438-12.375 5.125s-5.125 7.7344-5.125 12.375v87.5c0 6.2539 3.3359 12.031 8.75 15.156s12.086 3.125 17.5 0 8.75-8.9023 8.75-15.156v-87.5c0-4.6406-1.8438-9.0938-5.125-12.375s-7.7344-5.125-12.375-5.125z"
       id="path12"
       style="fill:#55d400" />
    <path
       d="m473.73 379.05c-4.5078-3.8594-10.66-5.1719-16.348-3.4922-5.6875 1.6836-10.137 6.1328-11.82 11.82-1.6797 5.6875-0.36719 11.84 3.4922 16.348l61.949 61.949c4.5039 3.8555 10.656 5.1719 16.348 3.4883 5.6875-1.6797 10.137-6.1289 11.816-11.816 1.6836-5.6914 0.36719-11.844-3.4883-16.348z"
       id="path14"
       style="fill:#55d400" />
    <path
       d="m595 262.5h-87.5c-6.2539 0-12.031 3.3359-15.156 8.75s-3.125 12.086 0 17.5 8.9023 8.75 15.156 8.75h87.5c6.2539 0 12.031-3.3359 15.156-8.75s3.125-12.086 0-17.5-8.9023-8.75-15.156-8.75z"
       id="path16"
       style="fill:#55d400" />
    <path
       d="m461.3 186.2c4.6523 0.027343 9.1211-1.7969 12.426-5.0742l61.949-61.949c3.8555-4.5078 5.1719-10.66 3.4883-16.348-1.6797-5.6875-6.1289-10.137-11.816-11.816-5.6914-1.6836-11.844-0.37109-16.348 3.4883l-61.949 61.773c-3.3086 3.2852-5.1719 7.75-5.1758 12.414-0.003906 4.6602 1.8516 9.1289 5.1562 12.418 3.3047 3.2891 7.7812 5.1211 12.445 5.0938z"
       id="path18"
       style="fill:#55d400" />
  </g>
</svg>
