<?xml version="1.0" encoding="UTF-8" standalone="no"?>
<svg
   width="700pt"
   height="700pt"
   version="1.1"
   viewBox="0 0 700 700"
   id="svg4"
   sodipodi:docname="themeDark.svg"
   inkscape:version="1.2 (dc2aedaf03, 2022-05-15)"
   xmlns:inkscape="http://www.inkscape.org/namespaces/inkscape"
   xmlns:sodipodi="http://sodipodi.sourceforge.net/DTD/sodipodi-0.dtd"
   xmlns="http://www.w3.org/2000/svg"
   xmlns:svg="http://www.w3.org/2000/svg">
  <defs
     id="defs8" />
  <sodipodi:namedview
     id="namedview6"
     pagecolor="#ffffff"
     bordercolor="#666666"
     borderopacity="1.0"
     inkscape:showpageshadow="2"
     inkscape:pageopacity="0.0"
     inkscape:pagecheckerboard="0"
     inkscape:deskcolor="#d1d1d1"
     inkscape:document-units="pt"
     showgrid="false"
     inkscape:zoom="0.79607143"
     inkscape:cx="466.66667"
     inkscape:cy="466.03858"
     inkscape:window-width="2560"
     inkscape:window-height="1351"
     inkscape:window-x="1920"
     inkscape:window-y="0"
     inkscape:window-maximized="1"
     inkscape:current-layer="svg4" />
  <path
     d="m573.12 450.62c-1.5625-3.2305-4.0781-5.9023-7.207-7.6562-3.1289-1.7539-6.7227-2.5-10.293-2.1445-52.113 7.4141-105.18-3.3867-150.25-30.578-45.07-27.191-79.371-69.105-97.113-118.66-17.738-49.555-17.832-103.71-0.25781-153.33 12.207-34.535 32.625-65.586 59.5-90.477 3.8047-3.4023 5.9336-8.3008 5.8242-13.406-0.10938-5.1055-2.4414-9.9102-6.3867-13.152-3.9453-3.2422-9.1094-4.5977-14.137-3.7148-55.062 7.5039-106.35 32.211-146.54 70.594s-67.223 88.48-77.246 143.14c-10.023 54.656-2.5273 111.09 21.422 161.23 23.949 50.145 63.129 91.441 111.94 118 48.816 26.559 104.77 37.016 159.89 29.883 55.109-7.1328 106.56-31.492 147-69.602 2.6758-2.5234 4.4883-5.8281 5.1797-9.4414 0.69141-3.6133 0.22656-7.3516-1.3281-10.684z"
     id="path2"
     style="fill:#003380" />
</svg>
